<?xml version="1.0" encoding="UTF-8"?>
<svg width="872px" height="807px" viewBox="0 0 872 807" version="1.1" xmlns="http://www.w3.org/2000/svg" xmlns:xlink="http://www.w3.org/1999/xlink">
    <title>undraw_girl_just_wanna_have_fun_9d5u</title>
    <defs>
        <linearGradient x1="49.9948781%" y1="100.036884%" x2="49.9948781%" y2="0.00714651265%" id="linearGradient-1">
            <stop stop-color="#808080" stop-opacity="0.25" offset="0%"></stop>
            <stop stop-color="#808080" stop-opacity="0.12" offset="54%"></stop>
            <stop stop-color="#808080" stop-opacity="0.1" offset="100%"></stop>
        </linearGradient>
    </defs>
    <g id="Page-1" stroke="none" stroke-width="1" fill="none" fill-rule="evenodd">
        <g id="undraw_girl_just_wanna_have_fun_9d5u">
            <path d="M149.03427,236.061384 C144.362019,241.729082 142.563032,249.697952 140.550895,257.189542 C124.351484,317.565448 84.4327272,366.128676 38.9720664,400.816697 C19.7203462,415.518622 -3.71764267,435.231986 0.494204001,461.559085 C2.76212144,475.707025 12.7119697,486.121954 20.1040164,497.644854 C35.6128202,521.773057 40.6431634,554.569003 33.2511167,583.452959 C24.8444754,616.317089 1.34680454,646.982321 8.61948715,680.212934 C13.104166,700.667786 28.3316116,715.224823 42.9707629,727.736374 C65.8090894,747.242348 89.3749683,765.51535 113.6684,782.555378 C129.95307,793.976004 147.277913,805.089807 166.256801,806.538693 C182.967772,807.817121 199.337702,801.467594 215.204598,795.203295 C229.067883,789.723099 243.280734,784.021309 254.475379,773.043872 C261.782165,765.876151 267.605427,756.628853 275.722184,750.765129 C294.786332,736.992195 319.27302,745.719598 341.133698,751.617414 C392.71603,765.458531 447.921915,760.404478 497.006128,737.350155 C572.299282,701.980306 629.687825,627.703623 703.335459,587.850753 C735.001043,570.711291 769.446105,560.074768 798.767038,538.000573 C815.285994,525.432224 829.481956,510.076254 840.714984,492.624892 C862.882598,458.43972 874.870162,414.853839 871.408604,372.188426 C867.947045,329.523013 848.550383,288.40876 818.086966,264.323171 C785.474995,238.541535 744.285863,233.726122 707.180688,218.248617 C668.864819,202.25974 634.77785,174.782055 596.8286,157.625548 C534.620263,129.59933 463.066464,131.216051 402.188422,162.023341 C360.888452,182.861722 319.025766,231.586885 273.027967,235.251713 C240.262528,237.834138 174.620812,205.021145 149.03427,236.061384 Z" id="Path" fill="#6C63FF" fill-rule="nonzero" opacity="0.1"></path>
            <path d="M326.65,354.7 C326.65,354.7 279.84,333.12 263.82,296.15 C257.200558,280.600299 245.715847,267.617278 231.09,259.15 C224.114644,255.185344 216.790696,251.868144 209.21,249.24" id="Path" stroke="#535461" stroke-width="2"></path>
            <path d="M198.96,226.01 C203.52,230.01 209.53,249.82 209.53,249.82 C209.53,249.82 189.08,246.52 184.53,242.53 C181.236955,240.050966 179.60618,235.938952 180.305058,231.87677 C181.003936,227.814588 183.915173,224.484004 187.847365,223.248036 C191.779558,222.012068 196.072756,223.078152 198.97,226.01 L198.96,226.01 Z" id="Path" fill="#6C63FF" fill-rule="nonzero"></path>
            <path d="M236.17,234.44 C237.83,240.27 232.1,260.18 232.1,260.18 C232.1,260.18 216.73,246.29 215.1,240.46 C213.672124,236.584984 214.534963,232.236682 217.334243,229.200466 C220.133523,226.164249 224.39756,224.951727 228.375581,226.060749 C232.353602,227.169771 235.375302,230.413464 236.2,234.46 L236.17,234.44 Z" id="Path" fill="#6C63FF" fill-rule="nonzero"></path>
            <path d="M278.84,272.79 C277.38,278.66 262.38,292.95 262.38,292.95 C262.38,292.95 256.12,273.2 257.63,267.33 C259.444263,261.83451 265.206397,258.684629 270.811718,260.124189 C276.417039,261.56375 279.948304,267.100365 278.89,272.79 L278.84,272.79 Z" id="Path" fill="#6C63FF" fill-rule="nonzero"></path>
            <path d="M304.59,309.07 C304.1,315.07 291.73,331.73 291.73,331.73 C291.73,331.73 282.22,313.32 282.73,307.28 C283.612455,301.579456 288.748625,297.52888 294.497842,297.999437 C300.247059,298.469995 304.656228,303.301832 304.6,309.07 L304.59,309.07 Z" id="Path" fill="#6C63FF" fill-rule="nonzero"></path>
            <path d="M217.83,278.3 C223.83,277.81 240.49,265.44 240.49,265.44 C240.49,265.44 222.08,255.94 216.04,256.44 C211.921238,256.48015 208.170029,258.817982 206.319659,262.49792 C204.469289,266.177859 204.829855,270.583199 207.253975,273.913282 C209.678096,277.243365 213.759525,278.940117 217.83,278.31 L217.83,278.3 Z" id="Path" fill="#6C63FF" fill-rule="nonzero"></path>
            <path d="M248.48,320.35 C254.1,318.07 266.25,301.3 266.25,301.3 C266.25,301.3 245.84,297.74 240.25,300.02 C235.086284,302.573613 232.767311,308.678561 234.933439,314.016425 C237.099567,319.35429 243.017017,322.116862 248.5,320.35 L248.48,320.35 Z" id="Path" fill="#6C63FF" fill-rule="nonzero"></path>
            <path d="M283.88,357.13 C289.8,355.83 304.62,341.35 304.62,341.35 C304.62,341.35 285.11,334.35 279.19,335.69 C273.636539,337.30998 270.286799,342.954601 271.525533,348.605336 C272.764267,354.25607 278.168132,357.981757 283.89,357.13 L283.88,357.13 Z" id="Path" fill="#6C63FF" fill-rule="nonzero"></path>
            <path d="M198.96,226.01 C203.52,230.01 209.53,249.82 209.53,249.82 C209.53,249.82 189.08,246.52 184.53,242.53 C181.236955,240.050966 179.60618,235.938952 180.305058,231.87677 C181.003936,227.814588 183.915173,224.484004 187.847365,223.248036 C191.779558,222.012068 196.072756,223.078152 198.97,226.01 L198.96,226.01 Z" id="Path" fill="#6C63FF" fill-rule="nonzero" opacity="0.1"></path>
            <path d="M236.17,234.44 C237.83,240.27 232.1,260.18 232.1,260.18 C232.1,260.18 216.73,246.29 215.1,240.46 C213.672124,236.584984 214.534963,232.236682 217.334243,229.200466 C220.133523,226.164249 224.39756,224.951727 228.375581,226.060749 C232.353602,227.169771 235.375302,230.413464 236.2,234.46 L236.17,234.44 Z" id="Path" fill="#6C63FF" fill-rule="nonzero" opacity="0.1"></path>
            <path d="M278.84,272.79 C277.38,278.66 262.38,292.95 262.38,292.95 C262.38,292.95 256.12,273.2 257.63,267.33 C259.444263,261.83451 265.206397,258.684629 270.811718,260.124189 C276.417039,261.56375 279.948304,267.100365 278.89,272.79 L278.84,272.79 Z" id="Path" fill="#6C63FF" fill-rule="nonzero" opacity="0.1"></path>
            <path d="M304.59,309.07 C304.1,315.07 291.73,331.73 291.73,331.73 C291.73,331.73 282.22,313.32 282.73,307.28 C283.612455,301.579456 288.748625,297.52888 294.497842,297.999437 C300.247059,298.469995 304.656228,303.301832 304.6,309.07 L304.59,309.07 Z" id="Path" fill="#6C63FF" fill-rule="nonzero" opacity="0.1"></path>
            <path d="M217.83,278.3 C223.83,277.81 240.49,265.44 240.49,265.44 C240.49,265.44 222.08,255.94 216.04,256.44 C211.921238,256.48015 208.170029,258.817982 206.319659,262.49792 C204.469289,266.177859 204.829855,270.583199 207.253975,273.913282 C209.678096,277.243365 213.759525,278.940117 217.83,278.31 L217.83,278.3 Z" id="Path" fill="#6C63FF" fill-rule="nonzero" opacity="0.1"></path>
            <path d="M248.48,320.35 C254.1,318.07 266.25,301.3 266.25,301.3 C266.25,301.3 245.84,297.74 240.25,300.02 C235.086284,302.573613 232.767311,308.678561 234.933439,314.016425 C237.099567,319.35429 243.017017,322.116862 248.5,320.35 L248.48,320.35 Z" id="Path" fill="#6C63FF" fill-rule="nonzero" opacity="0.1"></path>
            <path d="M283.88,357.13 C289.8,355.83 304.62,341.35 304.62,341.35 C304.62,341.35 285.11,334.35 279.19,335.69 C273.636539,337.30998 270.286799,342.954601 271.525533,348.605336 C272.764267,354.25607 278.168132,357.981757 283.89,357.13 L283.88,357.13 Z" id="Path" fill="#6C63FF" fill-rule="nonzero" opacity="0.1"></path>
            <path d="M562.060516,550.7 C562.060516,550.7 579.560516,585.05 565.300516,603.84 C551.040516,622.63 566.600516,673.84 566.600516,673.84" id="Path" stroke="#6C63FF"></path>
            <path d="M567.280516,540 C567.280516,546.62 562.420516,552 562.420516,552 C562.420516,552 557.560516,546.63 557.560516,540 C557.560516,533.37 562.420516,528 562.420516,528 C562.420516,528 567.280516,533.38 567.280516,540 Z" id="Path" fill="#6C63FF" fill-rule="nonzero"></path>
            <path d="M571.130516,550.7 C571.130516,550.7 553.630516,585.05 567.890516,603.84 C582.150516,622.63 566.590516,673.84 566.590516,673.84" id="Path" stroke="#6C63FF"></path>
            <path d="M565.950516,540 C565.950516,546.62 570.810516,552 570.810516,552 C570.810516,552 575.670516,546.63 575.670516,540 C575.670516,533.37 570.810516,528 570.810516,528 C570.810516,528 565.950516,533.38 565.950516,540 Z" id="Path" fill="#6C63FF" fill-rule="nonzero"></path>
            <path d="M565.950516,540 C565.950516,546.62 570.810516,552 570.810516,552 C570.810516,552 575.670516,546.63 575.670516,540 C575.670516,533.37 570.810516,528 570.810516,528 C570.810516,528 565.950516,533.38 565.950516,540 Z" id="Path" fill="#000000" fill-rule="nonzero" opacity="0.1"></path>
            <path d="M578.280516,550.7 C578.280516,550.7 595.780516,585.05 581.520516,603.84 C567.260516,622.63 582.820516,673.84 582.820516,673.84" id="Path" stroke="#6C63FF"></path>
            <path d="M583.450516,540 C583.450516,546.62 578.590516,552 578.590516,552 C578.590516,552 573.730516,546.63 573.730516,540 C573.730516,533.37 578.590516,528 578.590516,528 C578.590516,528 583.450516,533.38 583.450516,540 Z" id="Path" fill="#6C63FF" fill-rule="nonzero"></path>
            <path d="M580.720516,567.5 C576.130516,572.27 568.900516,572.77 568.900516,572.77 C568.900516,572.77 569.120516,565.53 573.710516,560.77 C578.300516,556.01 585.530516,555.5 585.530516,555.5 C585.530516,555.5 585.280516,562.75 580.720516,567.5 Z" id="Path" fill="#6C63FF" fill-rule="nonzero"></path>
            <path d="M581.180516,591.22 C576.590516,595.99 569.360516,596.49 569.360516,596.49 C569.360516,596.49 569.580516,589.25 574.170516,584.49 C578.760516,579.73 585.990516,579.22 585.990516,579.22 C585.990516,579.22 585.770516,586.45 581.180516,591.22 Z" id="Path" fill="#6C63FF" fill-rule="nonzero"></path>
            <path d="M556.280516,604.26 C560.620516,609.26 560.470516,616.5 560.470516,616.5 C560.470516,616.5 553.280516,615.63 548.940516,610.63 C544.600516,605.63 544.750516,598.39 544.750516,598.39 C544.750516,598.39 551.940516,599.26 556.280516,604.26 Z" id="Path" fill="#6C63FF" fill-rule="nonzero"></path>
            <path d="M560.280516,553.72 C565.800516,557.38 567.590516,564.4 567.590516,564.4 C567.590516,564.4 560.430516,565.49 554.910516,561.83 C549.390516,558.17 547.600516,551.15 547.600516,551.15 C547.600516,551.15 554.790516,550.06 560.280516,553.72 Z" id="Path" fill="#6C63FF" fill-rule="nonzero"></path>
            <path d="M560.280516,553.72 C565.800516,557.38 567.590516,564.4 567.590516,564.4 C567.590516,564.4 560.430516,565.49 554.910516,561.83 C549.390516,558.17 547.600516,551.15 547.600516,551.15 C547.600516,551.15 554.790516,550.06 560.280516,553.72 Z" id="Path" fill="#000000" fill-rule="nonzero" opacity="0.1"></path>
            <path d="M587.330516,550.7 C587.330516,550.7 569.830516,585.05 584.090516,603.84 C598.350516,622.63 582.790516,673.84 582.790516,673.84" id="Path" stroke="#6C63FF"></path>
            <path d="M582.150516,540 C582.150516,546.62 587.010516,552 587.010516,552 C587.010516,552 591.870516,546.63 591.870516,540 C591.870516,533.37 587.010516,528 587.010516,528 C587.010516,528 582.150516,533.38 582.150516,540 Z" id="Path" fill="#6C63FF" fill-rule="nonzero"></path>
            <path d="M582.150516,540 C582.150516,546.62 587.010516,552 587.010516,552 C587.010516,552 591.870516,546.63 591.870516,540 C591.870516,533.37 587.010516,528 587.010516,528 C587.010516,528 582.150516,533.38 582.150516,540 Z" id="Path" fill="#000000" fill-rule="nonzero" opacity="0.1"></path>
            <path d="M583.550516,568.03 C578.900516,572.75 578.550516,580.03 578.550516,580.03 C578.550516,580.03 585.780516,579.62 590.430516,574.9 C595.080516,570.18 595.430516,562.9 595.430516,562.9 C595.430516,562.9 588.200516,563.32 583.550516,568.03 Z" id="Path" fill="#6C63FF" fill-rule="nonzero"></path>
            <path d="M583.550516,568.03 C578.900516,572.75 578.550516,580.03 578.550516,580.03 C578.550516,580.03 585.780516,579.62 590.430516,574.9 C595.080516,570.18 595.430516,562.9 595.430516,562.9 C595.430516,562.9 588.200516,563.32 583.550516,568.03 Z" id="Path" fill="#000000" fill-rule="nonzero" opacity="0.1"></path>
            <path d="M592.660516,600.84 C588.010516,605.56 587.660516,612.84 587.660516,612.84 C587.660516,612.84 594.890516,612.43 599.540516,607.71 C604.190516,602.99 604.540516,595.71 604.540516,595.71 C604.540516,595.71 597.280516,596.13 592.660516,600.84 Z" id="Path" fill="#6C63FF" fill-rule="nonzero"></path>
            <path d="M579.280516,593.63 C579.280516,593.63 589.810516,577.03 604.600516,576.63" id="Path" stroke="#6C63FF"></path>
            <path d="M571.050516,583.61 C571.050516,583.61 560.520516,567.01 545.730516,566.61" id="Path" stroke="#6C63FF"></path>
            <path d="M569.680516,607.3 C569.680516,607.3 580.210516,590.7 595.000516,590.3" id="Path" stroke="#6C63FF"></path>
            <circle id="Oval" fill="#6C63FF" fill-rule="nonzero" cx="604.090516" cy="576.55" r="2.73"></circle>
            <circle id="Oval" fill="#6C63FF" fill-rule="nonzero" cx="545.990516" cy="566.75" r="2.73"></circle>
            <path d="M577.430516,612.77 C577.430516,612.77 566.900516,596.17 552.110516,595.77" id="Path" stroke="#6C63FF"></path>
            <circle id="Oval" fill="#6C63FF" fill-rule="nonzero" cx="552.370516" cy="595.91" r="2.73"></circle>
            <circle id="Oval" fill="#6C63FF" fill-rule="nonzero" cx="595.210516" cy="590.45" r="2.73"></circle>
            <path d="M635.660516,653.89 C635.660516,653.89 610.280516,648.81 603.510516,642.04 C596.740516,635.27 566.280516,623.43 562.890516,631.89 C559.500516,640.35 517.200516,669.12 545.970516,674.2 C574.740516,679.28 613.660516,680.97 622.120516,677.58 C630.580516,674.19 635.660516,653.89 635.660516,653.89 Z" id="Path" fill="#A8A8A8" fill-rule="nonzero"></path>
            <path d="M545.958905,671.4 C574.728905,676.48 613.648905,678.17 622.108905,674.78 C628.548905,672.2 633.028905,659.78 634.798905,654.06 L635.648905,654.24 C635.648905,654.24 630.568905,674.55 622.108905,677.93 C613.648905,681.31 574.728905,679.62 545.958905,674.55 C537.658905,673.08 535.278905,669.64 536.178905,665.29 C536.878905,668.13 539.778905,670.31 545.958905,671.4 Z" id="Path" fill="#000000" fill-rule="nonzero" opacity="0.2"></path>
            <path d="M129.31,606.85 C129.31,606.85 137.69,617.85 125.44,634.35 C113.19,650.85 103.1,664.85 107.18,675.2 C107.18,675.2 125.66,644.47 140.7,644.04 C155.74,643.61 145.86,625.35 129.31,606.85 Z" id="Path" fill="#6C63FF" fill-rule="nonzero"></path>
            <path d="M129.31,606.85 C130.040244,607.909775 130.616012,609.068045 131.02,610.29 C145.7,627.53 153.51,643.62 139.41,644.03 C126.27,644.41 110.51,667.9 106.73,673.84 C106.854731,674.298032 107.004966,674.748735 107.18,675.19 C107.18,675.19 125.66,644.46 140.7,644.03 C155.74,643.6 145.86,625.35 129.31,606.85 Z" id="Path" fill="#000000" fill-rule="nonzero" opacity="0.1"></path>
            <path d="M144.89,620.85 C144.89,624.71 144.46,627.85 143.89,627.85 C143.32,627.85 142.89,624.72 142.89,620.85 C142.89,616.98 143.43,618.85 143.96,618.85 C144.49,618.85 144.89,616.98 144.89,620.85 Z" id="Path" fill="#FFD037" fill-rule="nonzero"></path>
            <path d="M150.24,625.44 C146.85,627.29 143.9,628.44 143.65,627.93 C143.4,627.42 145.93,625.58 149.32,623.74 C152.71,621.9 151.37,623.24 151.63,623.74 C151.89,624.24 153.62,623.59 150.24,625.44 Z" id="Path" fill="#FFD037" fill-rule="nonzero"></path>
            <path d="M85.05,606.85 C85.05,606.85 76.67,617.85 88.92,634.35 C101.17,650.85 111.26,664.85 107.18,675.2 C107.18,675.2 88.7,644.47 73.66,644.04 C58.62,643.61 68.5,625.35 85.05,606.85 Z" id="Path" fill="#6C63FF" fill-rule="nonzero"></path>
            <path d="M85.05,606.85 C84.319756,607.909775 83.743988,609.068045 83.34,610.29 C68.66,627.53 60.85,643.62 74.95,644.03 C88.09,644.41 103.85,667.9 107.63,673.84 C107.505269,674.298032 107.355034,674.748735 107.18,675.19 C107.18,675.19 88.7,644.46 73.66,644.03 C58.62,643.6 68.5,625.35 85.05,606.85 Z" id="Path" fill="#000000" fill-rule="nonzero" opacity="0.1"></path>
            <path d="M69.47,620.85 C69.47,624.71 69.9,627.85 70.47,627.85 C71.04,627.85 71.47,624.72 71.47,620.85 C71.47,616.98 70.93,618.85 70.4,618.85 C69.87,618.85 69.47,616.98 69.47,620.85 Z" id="Path" fill="#FFD037" fill-rule="nonzero"></path>
            <path d="M64.12,625.44 C67.51,627.29 70.46,628.44 70.71,627.93 C70.96,627.42 68.43,625.58 65.04,623.74 C61.65,621.9 62.99,623.24 62.73,623.74 C62.47,624.24 60.73,623.59 64.12,625.44 Z" id="Path" fill="#FFD037" fill-rule="nonzero"></path>
            <path d="M72.14,673.77 C72.14,673.77 95.57,673.05 102.63,668.02 C109.69,662.99 138.63,657.02 140.42,665.02 C142.21,673.02 175.63,705.13 149.18,705.34 C122.73,705.55 87.72,701.22 80.67,696.93 C73.62,692.64 72.14,673.77 72.14,673.77 Z" id="Path" fill="#A8A8A8" fill-rule="nonzero"></path>
            <path d="M149.65,702.56 C123.2,702.77 88.19,698.44 81.14,694.15 C75.77,690.88 73.63,679.15 72.92,673.74 L72.14,673.74 C72.14,673.74 73.62,692.64 80.67,696.93 C87.72,701.22 122.73,705.56 149.18,705.34 C156.82,705.28 159.45,702.56 159.31,698.54 C158.25,701 155.38,702.52 149.65,702.56 Z" id="Path" fill="#000000" fill-rule="nonzero" opacity="0.2"></path>
            <path d="M444.3,419.92 C444.3,419.92 442,403.79 437.9,382.26 C439.22,383.26 440.47,383.7 441.58,383.4 C449.19,381.31 437.23,351.06 437.23,351.06 L424.72,271.76 C424.72,271.76 424.11,261.35 423.64,249.12 C429.8,249.95 435.15,251.7 436.64,255.07 C436.64,255.07 438.02,232.98 437.96,212.42 C437.96,195.6 437.17,179.13 433.96,175.77 C432.89,174.66 430.28,173.69 426.63,172.83 C426.63,172.49 426.69,172.15 426.72,171.83 L426.72,171.56 C427.72,157.49 417.99,144.79 403.72,141.39 C392.87,138.8 374.94,132.24 370.5,116.66 C370.41,116.35 370.33,116.03 370.26,115.66 C376.194502,113.398716 381.422488,109.602819 385.41,104.66 C386.476667,103.74 387.493333,102.773333 388.46,101.76 C396.586325,106.284769 406.585951,105.756223 414.19,100.4 C414.63,100.09 415.05,99.76 415.46,99.4 C407.787957,104.059568 398.169073,104.098044 390.46,99.5 C396.420092,92.3301784 399.688348,83.3035674 399.7,73.98 C399.597678,59.6699991 392.009254,46.4585522 379.7,39.16 C381.608089,37.5269278 383.230358,35.5869646 384.5,33.42 C390.82,22.61 386.8,8.94 375.5,2.88 C375.02,2.62 374.5,2.39 374.05,2.17 C384.25125,8.35807238 387.617951,21.5758189 381.62,31.89 C380.975781,32.9869165 380.239818,34.0273012 379.42,35 C381.628299,31.5266958 382.800776,27.495875 382.8,23.38 C382.8,10.99 372.33,0.95 359.41,0.95 C346.49,0.95 336.02,10.95 336.02,23.38 C336.009756,27.893901 337.408054,32.2985403 340.02,35.98 C331.485453,39.3942495 324.283832,45.4768651 319.49,53.32 C320.511416,48.2891398 323.247037,43.7686497 327.23,40.53 C326.77,40.81 326.32,41.1 325.88,41.41 C319.979061,45.5291955 316.453298,52.2635907 316.43,59.46 C314.610806,64.0846963 313.677914,69.0103642 313.68,73.98 C313.726419,86.5898779 319.640838,98.4593771 329.68,106.09 C331.560401,108.179865 333.681864,110.039502 336,111.63 C335.92,111.92 335.83,112.21 335.74,112.5 C333.06,120.71 325.92,130.15 307.66,132.93 C275.66,137.8 271.66,139.93 268.15,167.42 L268.02,168.48 C266.000181,168.680994 263.995827,169.015053 262.02,169.48 C255.31,171.21 253.62,189.28 253.7,207.79 C253.59,229.06 256.04,251.91 256.04,251.91 C259.198728,253.120058 262.467359,254.020942 265.8,254.6 L262.02,343.73 C262.259065,347.307679 262.773927,350.861568 263.56,354.36 C256.15,379.69 250.82,402.64 249.38,408.85 L249.38,408.85 L249.27,409.32 L249.27,409.32 L249.18,409.72 L249.18,409.72 L249.06,410.27 L249.06,410.27 L249.06,410.42 L252.11,410.42 L252.61,410.42 L252.79,410.42 L253.4,410.42 L253.65,410.42 L254.13,410.42 L254.4,410.42 L255.03,410.48 L255.17,410.48 C261.02,411.08 269.37,413.28 272.43,420.77 C272.49,420.92 272.58,421.04 272.64,421.18 L272.64,421.18 C272.64,421.27 272.75,421.35 272.8,421.44 C272.91194,421.643586 273.035477,421.840576 273.17,422.03 C273.26,422.16 273.36,422.27 273.46,422.39 C273.610348,422.572 273.77059,422.745595 273.94,422.91 C274.05,423.02 274.17,423.12 274.3,423.22 C274.43,423.32 274.67,423.53 274.88,423.66 L275.29,423.91 C275.51,424.04 275.73,424.17 275.97,424.29 L276.43,424.49 C276.68,424.6 276.94,424.71 277.2,424.8 L277.69,424.96 C277.97,425.05 278.26,425.13 278.55,425.21 L279.08,425.33 L280.03,425.52 L280.58,425.6 L281.58,425.73 L282.15,425.73 L283.25,425.8 L283.84,425.8 L285.01,425.8 L285.6,425.8 L286.66,425.8 L287.3,428.91 L293.11,457.24 L301.81,503.15 C301.81,503.15 306.16,529.23 301.81,534.97 C297.46,540.71 311.06,619.48 311.06,619.48 L316.23,655.54 L316.36,656.47 C314.807163,657.764929 313.554834,659.382377 312.69,661.21 C312.69,661.21 310.51,673.73 302.9,683.12 L302.68,683.4 C301.168408,685.276465 300.377478,687.63152 300.45,690.04 C300.586613,695.985441 305.504039,700.701699 311.45,700.591944 L332.1,700.591944 C335.57353,700.609236 338.858677,699.012854 340.99,696.27 L346.72,688.77 C347.94252,687.176031 348.575056,685.20775 348.51,683.2 C348.512304,682.229693 348.350002,681.266024 348.03,680.35 C346.18,675.12 343.37,666.16 343.03,659.35 C342.956289,657.882643 342.356312,656.49098 341.34,655.43 L341.19,654.22 C339.72,642.22 338.13,622.22 342.56,614.79 C347.16,607.07 345.28,568.07 343.77,545.66 C342.989771,533.635825 344.031538,521.562786 346.86,509.85 C347.58,506.85 348.35,503.9 349.12,501.33 C351.27,494.1 347.51,452.63 344.7,425.21 L344.37,422.04 C350.16,422.69 355.94,423.91 360.54,426.2 C361.360922,426.58746 362.206015,426.921489 363.07,427.2 L362.77,430.2 C360.05,457.34 356.9,493.98 358.91,500.73 C359.56,502.91 360.2,505.35 360.83,507.87 C363.910825,520.333876 365.044237,533.199458 364.19,546.01 C362.68,568.52 360.89,606.82 365.44,614.46 C369.86,621.88 368.3,641.74 366.82,653.79 L366.67,654.99 C365.645453,655.976206 365.04021,657.3192 364.98,658.74 C364.74,665.2 362.18,673.68 360.32,679.08 C359.964439,680.127361 359.775473,681.224039 359.76,682.33 C359.65537,684.851586 360.441254,687.329599 361.98,689.33 L367.03,695.94 C369.161323,698.682854 372.44647,700.279236 375.92,700.26 L396.57,700.26 C402.515961,700.371699 407.433387,695.655441 407.57,689.71 C407.642522,687.30152 406.851592,684.946465 405.34,683.07 L405.12,682.79 C397.51,673.4 395.33,660.88 395.33,660.88 C394.465166,659.052377 393.212837,657.434929 391.66,656.14 L391.79,655.21 L396.96,619.15 C396.96,619.15 410.56,540.37 406.21,534.64 C401.86,528.91 406.21,502.82 406.21,502.82 L414.91,456.91 L422.14,421.65 L422.78,418.52 C433.15,418.67 444.3,419.92 444.3,419.92 Z M290.87,246.99 C291.955268,246.538482 293.067385,246.154417 294.2,245.84 C296.4,256.58 296.53,271.09 289.2,287.66 C289.15,278.85 289.22,260.02 290.87,246.99 Z" id="Shape" fill="url(#linearGradient-1)" fill-rule="nonzero"></path>
            <path d="M349.01,501.53 C348.28,504.09 347.54,507.03 346.85,510.02 C344.123354,521.812964 343.13624,533.941328 343.92,546.02 C345.37,568.37 347.16,607.26 342.77,614.95 C338.53,622.37 340.05,642.26 341.46,654.27 C342.13,659.95 342.77,663.85 342.77,663.85 L318.32,661.25 L317.54,655.59 L312.6,619.59 C312.6,619.59 299.6,541.04 303.76,535.32 C307.92,529.6 303.76,503.59 303.76,503.59 L295.43,457.85 L289.87,429.6 L283.46,396.99 L342.24,401.15 C342.24,401.15 343.38,411.53 344.77,425.65 C347.47,452.97 351.07,494.33 349.01,501.53 Z" id="Path" fill="#FFBCC8" fill-rule="nonzero"></path>
            <path d="M423.92,396.45 L418.87,422.16 L411.96,457.31 L403.64,503.09 C403.64,503.09 399.48,529.09 403.64,534.82 C407.8,540.55 394.8,619.09 394.8,619.09 L389.86,655.09 L389.08,660.75 L364.63,663.35 C364.63,663.35 365.28,659.35 365.95,653.67 C367.36,641.67 368.86,621.85 364.63,614.45 C360.28,606.83 361.99,568.64 363.43,546.2 C364.245858,533.444281 363.164073,520.638104 360.22,508.2 C359.62,505.69 359,503.25 358.38,501.08 C356.46,494.35 359.47,457.82 362.07,430.76 C363.69,413.89 365.14,400.69 365.14,400.69 L423.92,396.45 Z" id="Path" fill="#FFBCC8" fill-rule="nonzero"></path>
            <circle id="Oval" fill="#40243E" fill-rule="nonzero" cx="358.9" cy="25.05" r="22.37"></circle>
            <path d="M374.29,4.61 C373.83,4.35 373.37,4.12 372.9,3.9 C382.884829,10.2774432 386.161947,23.3361044 380.371492,33.6724109 C374.581037,44.0087174 361.733315,48.0341565 351.08,42.85 C351.51,43.13 351.95,43.41 352.41,43.67 C359.397196,47.880693 368.122551,47.9539135 375.179428,43.8610738 C382.236304,39.7682342 386.505633,32.1583704 386.32054,24.0026006 C386.135448,15.8468309 381.525286,8.438484 374.29,4.67 L374.29,4.61 Z" id="Path" fill="#40243E" fill-rule="nonzero"></path>
            <path d="M411.27,101.85 C411.69,101.54 412.09,101.21 412.49,100.85 C402.595178,107.172593 389.495447,104.764219 382.496452,95.3357117 C375.497457,85.9072044 376.983962,72.6711353 385.9,65.03 C385.46,65.31 385.03,65.6 384.61,65.91 C374.685443,73.2719557 372.608044,87.285443 379.97,97.21 C387.331956,107.134557 401.345443,109.211956 411.27,101.85 Z" id="Path" fill="#40243E" fill-rule="nonzero"></path>
            <path d="M353.53,78.94 C353.95,78.63 354.35,78.3 354.75,77.94 C344.855178,84.2625934 331.755447,81.854219 324.756452,72.4257117 C317.757457,62.9972044 319.243962,49.7611353 328.16,42.12 C327.72,42.4 327.29,42.69 326.87,43 C317.067472,50.4025947 315.067767,64.3246394 322.390424,74.1870252 C329.713081,84.0494111 343.618408,86.1622348 353.54,78.92 L353.53,78.94 Z" id="Path" fill="#40243E" fill-rule="nonzero"></path>
            <circle id="Oval" fill="#40243E" fill-rule="nonzero" cx="356.3" cy="75.51" r="41.09"></circle>
            <path d="M437.44,383.97 C430.16,386.05 416.63,352.76 416.63,352.76 L390.63,273.69 L391.45,246.13 L393.23,186.3 L315.72,188.38 C315.72,188.38 301.16,225.85 295.96,236.24 C294.903006,238.745081 294.193112,241.38279 293.85,244.08 C291.08,260.93 291.85,293.46 291.85,293.46 L286.13,349.12 C286.13,349.12 285.61,376.69 276.25,371.49 C266.89,366.29 265.85,344.49 265.85,344.49 L269.38,254.96 C269.38,254.96 269.38,253.87 269.26,251.9 C268.88,240.98 267.86,203.06 270.94,174.9 C271.18,172.713333 271.416667,170.653333 271.65,168.72 C274.99,141.32 278.82,139.18 309.44,134.33 C326.9,131.56 333.73,122.14 336.29,113.95 C337.650558,109.608386 338.073221,105.02726 337.53,100.51 C337.53,100.51 372.9,72.94 368.74,106.23 C368.194307,110.164411 368.432206,114.167902 369.44,118.01 C373.69,133.54 390.84,140.09 401.21,142.67 C414.8718,146.034988 424.14715,158.721137 423.21,172.76 L423.21,173.03 C422.97074,176.490069 422.326335,179.910116 421.29,183.22 C421.29,183.22 421.81,202.47 420.29,214.43 C419.54,220.17 419.75,233.81 420.17,246.43 C420.63,260.14 421.33,272.67 421.33,272.67 L433.33,351.74 C433.33,351.74 444.73,381.85 437.44,383.97 Z" id="Path" fill="#FFBCC8" fill-rule="nonzero"></path>
            <path d="M369.48,117.97 C358.485729,122.42243 345.972286,120.887548 336.38,113.91 C337.740558,109.568386 338.163221,104.98726 337.62,100.47 C337.62,100.47 372.99,72.9 368.83,106.19 C368.267997,110.121122 368.4889,114.124575 369.48,117.97 Z" id="Path" fill="#000000" fill-rule="nonzero" opacity="0.1"></path>
            <circle id="Oval" fill="#FFBCC8" fill-rule="nonzero" cx="356.56" cy="85.13" r="34.33"></circle>
            <path d="M342.77,663.85 L318.32,661.25 L317.54,655.59 C322.47,651.07 329.76,649.81 329.76,649.81 C331.76,649.15 336.64,651.42 339.97,653.17 C340.523842,653.456323 341.027147,653.831268 341.46,654.28 C342.13,659.92 342.77,663.85 342.77,663.85 Z" id="Path" fill="#000000" fill-rule="nonzero" opacity="0.1"></path>
            <path d="M329.77,650.85 C329.77,650.85 317.77,652.93 314.16,661.25 C314.16,661.25 312.08,673.73 304.8,683.1 L304.59,683.38 C302.180444,686.572162 301.785211,690.853099 303.569594,694.432461 C305.353977,698.011823 309.010519,700.272871 313.01,700.270003 L332.76,700.270003 C336.118153,700.269462 339.275058,698.668726 341.26,695.96 L346.74,688.48 C348.46089,686.13772 348.931169,683.1033 348,680.35 C346.23,675.13 343.54,666.2 343.23,659.35 C343.148216,657.164676 341.91028,655.187787 339.98,654.16 C336.64,652.43 331.74,650.16 329.77,650.85 Z" id="Path" fill="#DFD5E3" fill-rule="nonzero"></path>
            <path d="M389.85,655.05 L389.07,660.71 L364.62,663.31 C364.62,663.31 365.27,659.31 365.94,653.63 C366.308633,653.282776 366.722352,652.986782 367.17,652.75 C370.49,650.99 375.59,648.59 377.62,649.26 C377.62,649.26 384.92,650.53 389.85,655.05 Z" id="Path" fill="#000000" fill-rule="nonzero" opacity="0.1"></path>
            <path d="M377.62,650.3 C377.62,650.3 389.62,652.38 393.23,660.7 C393.23,660.7 395.31,673.18 402.59,682.55 L402.8,682.83 C405.209556,686.022162 405.604789,690.303099 403.820406,693.882461 C402.036023,697.461823 398.379481,699.722871 394.38,699.720003 L374.64,699.720003 C371.281847,699.719462 368.124942,698.118726 366.14,695.41 L361.31,688.85 C359.186125,685.973241 358.593117,682.243629 359.72,678.85 C361.5,673.47 363.95,665.02 364.18,658.57 C364.251587,656.554318 365.395974,654.730929 367.18,653.79 C370.5,652.02 375.6,649.63 377.62,650.3 Z" id="Path" fill="#DFD5E3" fill-rule="nonzero"></path>
            <path d="M342.25,401.14 C342.25,401.14 343.39,411.52 344.78,425.64 C333.86,424.31 322.83,425.24 320.4,424.55 C317.97,423.86 302.17,429.02 289.88,429.55 L283.47,396.94 L342.25,401.14 Z" id="Path" fill="#000000" fill-rule="nonzero" opacity="0.1"></path>
            <path d="M423.92,396.45 L418.87,422.16 C412.06,422.16 405.73,422.65 403.63,424.54 C398.7,428.98 375.54,435.76 362.06,430.68 C363.68,413.81 365.13,400.61 365.13,400.61 L423.92,396.45 Z" id="Path" fill="#000000" fill-rule="nonzero" opacity="0.1"></path>
            <path d="M289.19,227.39 C289.19,227.39 308.44,256 289.19,293.97 C269.94,331.94 253.3,410.97 253.3,410.97 C253.3,410.97 270.99,409.41 275.67,421.37 C280.35,433.33 316.76,420.37 320.41,421.37 C324.06,422.37 346.94,419.81 359.94,426.57 C372.94,433.33 398.43,426.05 403.64,421.37 C408.85,416.69 440.05,420.37 440.05,420.37 C440.05,420.37 423.38,298.66 399.99,277.85 C399.99,277.85 385.99,260.68 403.63,232.07 C421.27,203.46 289.19,227.39 289.19,227.39 Z" id="Path" fill="#FF808E" fill-rule="nonzero"></path>
            <path d="M421.32,183.18 C421.32,183.18 421.84,202.43 420.32,214.39 C419.57,220.13 419.78,233.77 420.2,246.39 C411.53,245.2 401.2,246 398.47,246.62 C396.124439,246.829546 393.760418,246.65731 391.47,246.11 C382.93,244.53 370,240.26 366.2,235.7 C361,229.46 344.35,239.86 340.71,242.46 C337.07,245.06 315.22,246.1 309.5,243.46 C305.61,241.69 299.8,241.61 293.86,244.02 C290.828354,245.265869 288.026383,247.009919 285.57,249.18 C281.31,252.91 274.73,252.82 269.32,251.84 C268.94,240.92 267.92,203 271,174.84 C271.24,172.653333 271.476667,170.593333 271.71,168.66 C293.6,166.2 352.71,167.04 352.71,167.04 C352.71,167.04 403.79,168.17 423.29,172.98 C423.035274,176.445446 422.37407,179.868937 421.32,183.18 Z" id="Path" fill="#000000" fill-rule="nonzero" opacity="0.1"></path>
            <ellipse id="Oval" fill="#000000" fill-rule="nonzero" opacity="0.1" cx="358.64" cy="61.46" rx="31.47" ry="18.21"></ellipse>
            <ellipse id="Oval" fill="#40243E" fill-rule="nonzero" cx="358.64" cy="60.42" rx="31.47" ry="18.21"></ellipse>
            <path d="M299.38,139.74 C300.38,139.74 327.47,139.74 332.15,138.74" id="Path" fill="#000000" fill-rule="nonzero" opacity="0.1"></path>
            <path d="M377.88,144.95 C391.4,144.95 394.53,144.95 399.21,143.95" id="Path" fill="#000000" fill-rule="nonzero" opacity="0.1"></path>
            <path d="M335.64,163.85 C335.64,163.85 349.32,171.02 349.95,178.27 C349.95,178.27 355.04,164.77 362.3,164.14" id="Path" fill="#000000" fill-rule="nonzero" opacity="0.05"></path>
            <path d="M346.73,687.16 L341.25,694.64 C339.265058,697.348726 336.108153,698.949462 332.75,698.95 L313,698.95 C307.45633,698.958052 302.853949,694.670364 302.47,689.14 C302.244363,692.072965 303.252336,694.967121 305.251131,697.125364 C307.249926,699.283608 310.058368,700.51031 313,700.51 L332.75,700.51 C336.108153,700.509462 339.265058,698.908726 341.25,696.2 L346.73,688.72 C348.010628,686.972291 348.611353,684.818212 348.42,682.66 C348.279061,684.286386 347.694501,685.842907 346.73,687.16 L346.73,687.16 Z" id="Path" fill="#000000" fill-rule="nonzero" opacity="0.1"></path>
            <path d="M394.38,698.42 L374.64,698.42 C371.281847,698.419462 368.124942,696.818726 366.14,694.11 L361.31,687.52 C360.072932,685.836101 359.34105,683.834696 359.2,681.75 C359.004148,684.370143 359.752625,686.97385 361.31,689.09 L366.14,695.68 C368.124942,698.388726 371.281847,699.989462 374.64,699.99 L394.38,699.99 C397.321632,699.99031 400.130074,698.763608 402.128869,696.605364 C404.127664,694.447121 405.135637,691.552965 404.91,688.62 C404.521044,694.146414 399.920078,698.428414 394.38,698.42 L394.38,698.42 Z" id="Path" fill="#000000" fill-rule="nonzero" opacity="0.1"></path>
            <g id="Group" opacity="0.05" transform="translate(253.000000, 218.000000)" fill="#000000" fill-rule="nonzero">
                <path d="M146.99,59.85 C146.99,59.85 132.99,42.68 150.63,14.07 C155.33,6.47 149.45,2.58 138.29,0.96 C140.22,3.05 140.36,5.81 138.14,9.39 C120.45,38 134.5,55.17 134.5,55.17 C157.91,75.98 174.55,197.7 174.55,197.7 C174.55,197.7 143.34,194.06 138.14,198.7 C132.94,203.34 107.45,210.7 94.44,203.9 C81.43,197.1 58.55,199.74 54.91,198.7 C52.47,198 35.3,203.62 22.84,203.79 C28.19,215.04 63.84,202.35 67.39,203.38 C70.94,204.41 93.92,201.82 106.92,208.58 C119.92,215.34 145.41,208.06 150.62,203.38 C155.83,198.7 187.03,202.38 187.03,202.38 C187.03,202.38 170.38,80.66 146.99,59.85 Z" id="Path"></path>
                <path d="M0.92,190.15 C0.51,192 0.3,193.02 0.3,193.02 C2.25366874,192.895202 4.21451982,192.942048 6.16,193.16 C4.59359232,191.871211 2.82243607,190.85381 0.92,190.15 L0.92,190.15 Z" id="Path"></path>
            </g>
            <path d="M352.66,170.69 C352.66,170.69 279.31,169.69 265.79,173.29 C252.27,176.89 260.06,252.85 260.06,252.85 C260.06,252.85 277.23,260.13 285.55,252.85 C293.87,245.57 303.76,244.53 309.48,247.13 C315.2,249.73 337.05,248.69 340.69,246.13 C344.33,243.57 360.98,233.13 366.18,239.37 C371.38,245.61 393.75,251.37 398.43,250.29 C403.11,249.21 429.12,247.69 432.76,256.01 C432.76,256.01 436.92,186.83 430.16,179.54 C423.4,172.25 352.66,170.69 352.66,170.69 Z" id="Path" fill="#000000" fill-rule="nonzero" opacity="0.1"></path>
            <path d="M352.66,168.09 C352.66,168.09 279.31,167.09 265.79,170.69 C252.27,174.29 260.07,250.28 260.07,250.28 C260.07,250.28 277.24,257.56 285.56,250.28 C293.88,243 303.77,241.96 309.49,244.56 C315.21,247.16 337.06,246.12 340.7,243.56 C344.34,241 360.99,230.56 366.19,236.8 C371.39,243.04 393.76,248.8 398.44,247.72 C403.12,246.64 429.13,245.12 432.77,253.44 C432.77,253.44 436.93,184.26 430.17,176.97 C423.41,169.68 352.66,168.09 352.66,168.09 Z" id="Path" fill="#FF808E" fill-rule="nonzero"></path>
        </g>
    </g>
</svg>