<?xml version="1.0" encoding="UTF-8"?>
<svg width="475px" height="635px" viewBox="0 0 475 635" version="1.1" xmlns="http://www.w3.org/2000/svg" xmlns:xlink="http://www.w3.org/1999/xlink">
    <title>undraw_manage_chats_ylx0</title>
    <g id="Page-1" stroke="none" stroke-width="1" fill="none" fill-rule="evenodd">
        <g id="undraw_manage_chats_ylx0" fill-rule="nonzero">
            <path d="M367.73926,279.5361 L365.74219,279.43258 C365.84668,277.41598 365.98584,275.39108 366.15576,273.41358 L368.14795,273.58448 C367.98047,275.53952 367.84277,277.54196 367.73926,279.5361 Z" id="Path" fill="#E6E6E6"></path>
            <path d="M66.14648,631.11029 C65.91699,630.73529 60.50586,621.70013 58.62988,602.93841 C56.90918,585.72552 58.01563,556.71185 73.0625,516.24017 C101.56836,439.56927 66.49316,377.70697 66.13477,377.09076 L67.86523,376.08685 C67.95605,376.2431 77.00684,392.01556 82.35352,417.13085 C89.4181554,450.428359 86.8456606,485.049728 74.93752,516.93749 C46.48052,593.47749 67.63674,629.71093 67.85352,630.06835 L66.14648,631.11029 Z" id="Path" fill="#3F3D56"></path>
            <circle id="Oval" fill="#D8E4FB" cx="55" cy="359.58881" r="13"></circle>
            <circle id="Oval" fill="#D8E4FB" cx="96" cy="407.58881" r="13"></circle>
            <circle id="Oval" fill="#D8E4FB" cx="68" cy="439.58881" r="13"></circle>
            <circle id="Oval" fill="#D8E4FB" cx="102" cy="466.58881" r="13"></circle>
            <circle id="Oval" fill="#D8E4FB" cx="58" cy="508.58881" r="13"></circle>
            <path d="M74,631.5888 C74,631.5888 61,599.5888 100,575.5888 L74,631.5888 Z" id="Path" fill="#3F3D56"></path>
            <path d="M58.012,631.00834 C58.012,631.00834 52.09558,596.979 6.3035,597.27066 L58.012,631.00834 Z" id="Path" fill="#3F3D56"></path>
            <rect id="Rectangle" fill="#3F3D56" x="0" y="631.58881" width="475" height="3"></rect>
            <path d="M283.926735,160.546935 L277.994025,200.028615 L210.188175,245.891085 C210.188175,245.891085 174.537705,262.974755 176.782105,273.588805 C178.782755,283.050135 206.292435,281.930275 214.949595,267.299705 L296.016105,230.445765 L323.128285,176.771465 L283.926735,160.546935 Z" id="Path" fill="#FFB8B8"></path>
            <polygon id="Path" fill="#FFB8B8" points="284.282105 558.589005 287.282105 600.589005 316.282105 598.589005 311.282105 558.589005"></polygon>
            <path d="M292.282105,587.588805 C292.282105,587.588805 288.282105,572.588805 284.282105,573.588805 L278.282105,584.588805 C278.282105,584.588805 251.282105,609.588805 243.282105,610.588805 C243.282105,610.588805 217.282105,618.588805 243.282105,630.588805 L273.282105,630.588805 C273.282105,630.588805 293.282105,629.588805 297.282105,630.588805 C301.282105,631.588805 324.282105,631.588805 325.282105,625.588805 C326.282105,619.588805 322.282105,607.588805 322.282105,607.588805 C322.282105,607.588805 318.594275,578.086205 314.438195,583.837505 C312.266168,586.922733 309.87461,589.847409 307.282105,592.588805 L292.282105,587.588805 Z" id="Path" fill="#2F2E41"></path>
            <polygon id="Path" fill="#FFB8B8" points="359.282105 559.089005 362.282105 601.089005 391.282105 599.089005 386.282105 559.089005"></polygon>
            <path d="M367.282105,588.088805 C367.282105,588.088805 363.282105,573.088805 359.282105,574.088805 L353.282105,585.088805 C353.282105,585.088805 326.282105,610.088805 318.282105,611.088805 C318.282105,611.088805 292.282105,619.088805 318.282105,631.088805 L348.282105,631.088805 C348.282105,631.088805 368.282105,629.088805 372.282105,630.088805 C376.282105,631.088805 399.282105,631.088805 400.282105,625.088805 C401.282105,619.088805 397.282105,608.088805 397.282105,608.088805 C397.282105,608.088805 393.594275,578.586205 389.438195,584.337505 C387.266168,587.422733 384.87461,590.347409 382.282105,593.088805 L367.282105,588.088805 Z" id="Path" fill="#2F2E41"></path>
            <path d="M245.282105,301.088805 L240.282105,308.088805 L240.282105,322.088805 L272.282105,441.088805 L278.282105,467.088805 C278.282105,467.088805 278.282105,567.088805 284.282105,567.088805 C290.282105,567.088805 317.282105,570.088805 317.282105,564.088805 C317.282105,558.088805 315.282105,422.088805 315.282105,422.088805 L342.282105,473.088805 C342.282105,473.088805 354.282105,563.088805 358.282105,564.088805 C362.282105,565.088805 390.282105,564.088805 392.282105,558.088805 L386.282105,501.088805 C386.282105,501.088805 387.282105,437.088805 370.282105,423.088805 C370.282105,423.088805 367.282105,406.088805 364.282105,399.088805 C361.282105,392.088805 356.282105,388.088805 359.282105,383.088805 C362.282105,378.088805 355.282105,323.088805 355.282105,323.088805 C355.282105,323.088805 357.282105,306.088805 353.282105,301.088805 C349.282105,296.088805 245.282105,301.088805 245.282105,301.088805 Z" id="Path" fill="#2F2E41"></path>
            <circle id="Oval" fill="#FFB8B8" cx="309.282105" cy="43.0888147" r="31"></circle>
            <path d="M328.782105,61.5888047 L326.782105,81.5888047 L334.782105,88.5888047 L283.782105,112.588805 C296.345105,91.1252447 300.065795,71.5812747 293.782105,57.5888047 L328.782105,61.5888047 Z" id="Path" fill="#FFB8B8"></path>
            <path d="M293.782105,91.5888047 C293.782105,91.5888047 285.782105,107.588805 295.782105,103.588805 L326.782105,81.5888047 C326.782105,81.5888047 360.782105,94.5888047 372.782105,109.588805 L362.782105,215.588805 L354.782105,290.588805 C354.782105,290.588805 359.782105,299.588805 358.782105,300.588805 C357.782105,301.588805 356.782105,299.588805 357.782105,302.588805 C358.782105,305.588805 361.782105,302.588805 358.782105,305.588805 C355.782105,308.588805 352.782105,305.588805 355.782105,308.588805 C358.782105,311.588805 355.782105,312.588805 355.782105,312.588805 C355.782105,312.588805 351.782105,288.588805 316.782105,306.588805 C281.782105,324.588805 266.782105,329.588805 240.782105,307.588805 L270.782105,193.588805 L273.204425,150.592565 C274.013533,136.230895 276.569263,122.021281 280.815135,108.277745 C283.108485,100.854345 287.103635,93.5592747 293.782135,89.5888047 L293.782105,91.5888047 Z" id="Path" fill="#D0CDE1"></path>
            <path d="M347.282105,179.088805 L362.282105,216.088805 L327.282105,290.088805 C327.282105,290.088805 319.282105,299.088805 324.282105,310.088805 C326.865299,315.966507 329.87326,321.648211 333.282105,327.088805 C333.282105,327.088805 342.282105,323.088805 342.282105,306.088805 L393.282105,233.088805 L389.282105,173.088805 L347.282105,179.088805 Z" id="Path" fill="#FFB8B8"></path>
            <path d="M345.282105,113.088805 C345.282105,113.088805 331.282105,127.088805 337.282105,149.088805 C343.282105,171.088805 348.282105,188.088805 348.282105,188.088805 C348.282105,188.088805 372.282105,170.088805 392.282105,181.088805 C392.282105,181.088805 389.282105,116.088805 372.282105,110.088805 C355.282105,104.088805 345.282105,113.088805 345.282105,113.088805 Z" id="Path" fill="#D0CDE1"></path>
            <path d="M334.766105,16.4952847 C334.766105,16.4952847 325.294645,-4.02621526 307.141005,0.70951474 C288.987365,5.44524474 278.726615,12.5488447 277.937325,19.6524447 C277.148035,26.7560447 278.331965,37.4114447 278.331965,37.4114447 C278.331965,37.4114447 280.305185,22.8096047 292.933805,25.9667647 C305.562425,29.1239247 325.294645,26.7560547 325.294645,26.7560547 L328.451795,55.1704447 C328.451795,55.1704447 333.835645,49.4316647 337.782085,52.5888147 C341.728525,55.7459647 347.394745,22.8095947 334.766105,16.4952847 Z" id="Path" fill="#2F2E41"></path>
            <path d="M177.940225,239.510875 L177.940225,239.510875 L196.397225,235.236255 C198.231691,234.811393 200.115689,235.714365 200.933605,237.410475 L219.839865,276.616475 C220.257313,277.4821 220.270905,278.487954 219.876997,279.364542 C219.48309,280.241131 218.721949,280.898848 217.797505,281.161475 L199.040105,286.490685 C196.9624,287.080973 194.769211,286.03847 193.915105,284.054585 L181.851475,256.033655 L181.483945,256.237255 L179.187895,250.928455 L179.569565,250.733345 L176.202105,242.911695 C175.910086,242.233402 175.935587,241.460247 176.271666,240.80267 C176.607746,240.145094 177.219429,239.67153 177.940225,239.510875 Z" id="Path" fill="#3F3D56"></path>
            <path d="M194.173945,252.690735 L196.328435,252.191735 C197.60324,251.896503 198.91155,252.52916 199.471735,253.711735 L217.925505,292.666945 C218.140513,293.120799 218.147011,293.645829 217.943299,294.104865 C217.739587,294.5639 217.345904,294.911338 216.865105,295.056405 L198.239595,300.676045 C197.151729,301.004272 195.990824,300.463426 195.542265,299.419405 L178.082405,258.781625 C177.853634,258.249167 177.872713,257.642682 178.134497,257.125656 C178.396282,256.608629 178.873827,256.234279 179.438405,256.103515 L181.482275,255.630155 C181.888975,255.53596 182.308281,255.726394 182.504965,256.094625 L182.504965,256.094625 C182.678599,256.419713 183.048777,256.587836 183.407825,256.504675 L193.110825,254.257475 C193.820096,254.093212 194.283321,253.410564 194.173935,252.690785 L194.173945,252.690735 Z" id="Path" fill="#D8E4FB"></path>
        </g>
    </g>
</svg>